<svg width="37" height="28" viewBox="0 0 37 28" fill="none" xmlns="http://www.w3.org/2000/svg">
<path d="M18.6118 14.3624C19.4906 13.6016 20.1955 12.6608 20.6786 11.6036C21.1617 10.5464 21.4118 9.39764 21.4118 8.23529C21.4118 6.05116 20.5441 3.95648 18.9997 2.41206C17.4553 0.867645 15.3606 2.94677e-07 13.1765 2.94677e-07C10.9923 2.94677e-07 8.89766 0.867645 7.35324 2.41206C5.80882 3.95648 4.94118 6.05116 4.94118 8.23529C4.94116 9.39764 5.1912 10.5464 5.67432 11.6036C6.15745 12.6608 6.86234 13.6016 7.74118 14.3624C5.43552 15.4064 3.47935 17.0924 2.10656 19.2188C0.733757 21.3452 0.00242423 23.8219 0 26.3529C0 26.7898 0.173529 27.2087 0.482412 27.5176C0.791296 27.8265 1.21023 28 1.64706 28C2.08389 28 2.50282 27.8265 2.81171 27.5176C3.12059 27.2087 3.29412 26.7898 3.29412 26.3529C3.29412 23.732 4.33529 21.2184 6.18859 19.3651C8.04189 17.5118 10.5555 16.4706 13.1765 16.4706C15.7974 16.4706 18.311 17.5118 20.1643 19.3651C22.0177 21.2184 23.0588 23.732 23.0588 26.3529C23.0588 26.7898 23.2324 27.2087 23.5412 27.5176C23.8501 27.8265 24.2691 28 24.7059 28C25.1427 28 25.5616 27.8265 25.8705 27.5176C26.1794 27.2087 26.3529 26.7898 26.3529 26.3529C26.3505 23.8219 25.6192 21.3452 24.2464 19.2188C22.8736 17.0924 20.9174 15.4064 18.6118 14.3624ZM13.1765 13.1765C12.1992 13.1765 11.2439 12.8867 10.4313 12.3437C9.61873 11.8008 8.9854 11.0291 8.61142 10.1262C8.23743 9.22332 8.13958 8.22981 8.33024 7.27132C8.52089 6.31282 8.9915 5.43239 9.68253 4.74136C10.3736 4.05032 11.254 3.57972 12.2125 3.38906C13.171 3.19841 14.1645 3.29626 15.0674 3.67024C15.9703 4.04423 16.742 4.67755 17.2849 5.49012C17.8279 6.3027 18.1176 7.25802 18.1176 8.23529C18.1176 9.54578 17.5971 10.8026 16.6704 11.7292C15.7438 12.6559 14.487 13.1765 13.1765 13.1765ZM29.2188 13.7035C30.2729 12.5165 30.9614 11.0502 31.2016 9.48103C31.4417 7.91185 31.2232 6.30671 30.5723 4.85882C29.9215 3.41094 28.866 2.18202 27.533 1.31999C26.2 0.457965 24.6463 -0.000424282 23.0588 2.94677e-07C22.622 2.94677e-07 22.2031 0.173529 21.8942 0.482413C21.5853 0.791296 21.4118 1.21023 21.4118 1.64706C21.4118 2.08389 21.5853 2.50282 21.8942 2.81171C22.2031 3.12059 22.622 3.29412 23.0588 3.29412C24.3693 3.29412 25.6261 3.8147 26.5528 4.74136C27.4794 5.66801 28 6.92481 28 8.23529C27.9977 9.1004 27.7683 9.94972 27.3347 10.6983C26.9011 11.447 26.2786 12.0686 25.5294 12.5012C25.2852 12.642 25.0813 12.8432 24.9371 13.0855C24.7929 13.3277 24.7133 13.6029 24.7059 13.8847C24.699 14.1643 24.7634 14.4411 24.8931 14.6889C25.0228 14.9367 25.2134 15.1474 25.4471 15.3012L26.0894 15.7294L26.3035 15.8447C28.2889 16.7864 29.9638 18.2757 31.131 20.1375C32.2982 21.9992 32.9091 24.1557 32.8918 26.3529C32.8918 26.7898 33.0653 27.2087 33.3742 27.5176C33.6831 27.8265 34.102 28 34.5388 28C34.9757 28 35.3946 27.8265 35.7035 27.5176C36.0124 27.2087 36.1859 26.7898 36.1859 26.3529C36.1993 23.8254 35.5663 21.3364 34.3469 19.1225C33.1275 16.9085 31.3622 15.0431 29.2188 13.7035Z" fill="black"/>
</svg>
