<svg width="39" height="51" viewBox="0 0 39 51" fill="none" xmlns="http://www.w3.org/2000/svg">
<path d="M19.5 0C14.3283 0 9.36838 2.11315 5.71142 5.87458C2.05446 9.63601 0 14.7376 0 20.0571C0 33.5956 17.1844 48.8891 17.9156 49.541C18.3571 49.9294 18.919 50.1429 19.5 50.1429C20.081 50.1429 20.6429 49.9294 21.0844 49.541C21.9375 48.8891 39 33.5956 39 20.0571C39 14.7376 36.9455 9.63601 33.2886 5.87458C29.6316 2.11315 24.6717 0 19.5 0V0ZM19.5 44.2509C14.3081 39.2367 4.875 28.4309 4.875 20.0571C4.875 16.0675 6.41584 12.2413 9.15856 9.42021C11.9013 6.59913 15.6212 5.01427 19.5 5.01427C23.3788 5.01427 27.0987 6.59913 29.8414 9.42021C32.5842 12.2413 34.125 16.0675 34.125 20.0571C34.125 28.4309 24.6919 39.2617 19.5 44.2509ZM19.5 10.0285C17.5716 10.0285 15.6866 10.6167 14.0832 11.7187C12.4798 12.8206 11.2301 14.3868 10.4922 16.2193C9.75422 18.0518 9.56114 20.0682 9.93734 22.0135C10.3135 23.9589 11.2421 25.7458 12.6057 27.1483C13.9693 28.5508 15.7066 29.506 17.5979 29.8929C19.4892 30.2799 21.4496 30.0813 23.2312 29.3222C25.0127 28.5632 26.5355 27.2778 27.6068 25.6286C28.6782 23.9794 29.25 22.0405 29.25 20.0571C29.25 17.3973 28.2228 14.8465 26.3943 12.9658C24.5658 11.0851 22.0859 10.0285 19.5 10.0285ZM19.5 25.0713C18.5358 25.0713 17.5933 24.7773 16.7916 24.2263C15.9899 23.6753 15.3651 22.8922 14.9961 21.976C14.6271 21.0597 14.5306 20.0515 14.7187 19.0788C14.9068 18.1062 15.3711 17.2127 16.0529 16.5115C16.7346 15.8102 17.6033 15.3326 18.5489 15.1392C19.4946 14.9457 20.4748 15.045 21.3656 15.4245C22.2564 15.804 23.0177 16.4467 23.5534 17.2713C24.0891 18.0959 24.375 19.0653 24.375 20.0571C24.375 21.3869 23.8614 22.6623 22.9471 23.6027C22.0329 24.5431 20.7929 25.0713 19.5 25.0713Z" fill="black"/>
</svg>
