<svg width="58" height="58" viewBox="0 0 58 58" fill="none" xmlns="http://www.w3.org/2000/svg">
<path d="M24.1667 12.8889H38.6667V16.1111H24.1667V12.8889Z" fill="black"/>
<path d="M24.1667 19.3334H38.6667V22.5556H24.1667V19.3334Z" fill="black"/>
<path d="M24.1667 25.7778H38.6667V29.0001H24.1667V25.7778Z" fill="black"/>
<path d="M24.1667 32.2222H38.6667V35.4444H24.1667V32.2222Z" fill="black"/>
<path d="M24.1667 38.6666H38.6667V41.8888H24.1667V38.6666Z" fill="black"/>
<path d="M17.7222 12.8889H20.9445V16.1111H17.7222V12.8889Z" fill="black"/>
<path d="M17.7222 19.3334H20.9445V22.5556H17.7222V19.3334Z" fill="black"/>
<path d="M17.7222 25.7778H20.9445V29.0001H17.7222V25.7778Z" fill="black"/>
<path d="M17.7222 32.2222H20.9445V35.4444H17.7222V32.2222Z" fill="black"/>
<path d="M17.7222 38.6666H20.9445V41.8888H17.7222V38.6666Z" fill="black"/>
<path d="M45.1111 3.22217H12.8889C12.0343 3.22217 11.2147 3.56165 10.6104 4.16593C10.0061 4.77022 9.66666 5.5898 9.66666 6.44439V51.5555C9.66666 52.4101 10.0061 53.2297 10.6104 53.834C11.2147 54.4382 12.0343 54.7777 12.8889 54.7777H45.1111C45.9657 54.7777 46.7853 54.4382 47.3896 53.834C47.9938 53.2297 48.3333 52.4101 48.3333 51.5555V6.44439C48.3333 5.5898 47.9938 4.77022 47.3896 4.16593C46.7853 3.56165 45.9657 3.22217 45.1111 3.22217ZM45.1111 51.5555H12.8889V6.44439H45.1111V51.5555Z" fill="black"/>
</svg>
